<svg xmlns="http://www.w3.org/2000/svg" viewBox="0 0 146 35"><g fill="#FFF" fill-rule="nonzero"><path d="M2.5 11c.3-2.2 1.2-4.3 2.7-5.8C7 3.4 9.5 2.4 12.1 2.4c2.6 0 5 1 6.9 2.8 1.5 1.5 2.4 3.6 2.7 5.8h2.2c-.3-2.8-1.5-5.5-3.4-7.4C18.2 1.3 15.2.1 12 .1S5.8 1.3 3.5 3.6C1.6 5.5.5 8.2.1 11h2.4zM21.8 13.9c-.1 2.1-.7 4.2-2 5.8l-7.7 11.2-7.8-11.2c-1.2-1.6-1.8-3.7-1.9-5.8H.1C.2 16.5.9 19 2.4 21L12 34.9l9.6-13.8c1.5-2 2.3-4.6 2.4-7.1h-2.2v-.1z"/><path d="M9.6 11c.4-1 1.4-1.7 2.6-1.7 1.2 0 2.2.7 2.6 1.7h2.4c-.5-2.3-2.5-4-5-4-2.4 0-4.5 1.7-5 4h2.4zM14.8 13.9c-.4 1-1.4 1.7-2.6 1.7-1.2 0-2.2-.7-2.6-1.7H7.2c.5 2.3 2.5 4 5 4 2.4 0 4.5-1.7 5-4h-2.4zM36.592 8.912v.336h2.016l6.624 17.4h.696l6.768-17.4h2.064v-.336h-4.584v.336h2.16l-5.064 13.008-4.968-13.008h2.304v-.336h-8.016zm22.656 11.136v3.168c0 .464-.048.86-.144 1.188a2.286 2.286 0 01-.384.792c-.16.2-.34.348-.54.444a1.4 1.4 0 01-.612.144c-.368 0-.656-.084-.864-.252a1.59 1.59 0 01-.468-.612 2.431 2.431 0 01-.192-.744 7.314 7.314 0 01-.036-.672c0-.48.076-.872.228-1.176.152-.304.348-.56.588-.768.24-.208.512-.38.816-.516.304-.136.608-.276.912-.42.224-.112.38-.212.468-.3a.713.713 0 00.18-.276h.048zm4.848 5.568l-.216-.216c-.128.144-.26.256-.396.336-.136.08-.308.12-.516.12-.352 0-.572-.116-.66-.348a2.259 2.259 0 01-.132-.804v-5.952c0-.672-.116-1.228-.348-1.668a2.753 2.753 0 00-.936-1.044 3.714 3.714 0 00-1.392-.528 9.732 9.732 0 00-1.716-.144c-.528 0-1.036.056-1.524.168a4.88 4.88 0 00-1.308.492 2.778 2.778 0 00-.924.816c-.232.328-.348.7-.348 1.116 0 .272.044.488.132.648.088.16.196.284.324.372.128.088.276.144.444.168.168.024.332.036.492.036l.261-.005.159-.007c.168-.008.328-.044.48-.108.152-.064.284-.164.396-.3.112-.136.168-.324.168-.564l-.006-.102-.132-1.119a1.108 1.108 0 01-.006-.099c0-.448.136-.756.408-.924a1.79 1.79 0 01.96-.252c.576 0 .968.176 1.176.528.208.352.312.744.312 1.176v1.464c0 .304-.044.552-.132.744-.088.192-.244.364-.468.516-.224.152-.54.296-.948.432l-.593.19c-.294.092-.628.192-1.003.302-.4.128-.788.26-1.164.396a4.015 4.015 0 00-1.008.528c-.296.216-.536.48-.72.792-.184.312-.276.7-.276 1.164 0 .448.104.828.312 1.14.208.312.48.556.816.732.336.176.704.304 1.104.384.4.08.792.12 1.176.12.848 0 1.496-.112 1.944-.336.448-.224.8-.656 1.056-1.296h.048c.096.512.34.912.732 1.2.392.288.996.432 1.812.432.368 0 .764-.032 1.188-.096.424-.064.748-.264.972-.6zm3.648 4.128c0-.64.132-1.152.396-1.536.264-.384.636-.768 1.116-1.152h2.496c.24 0 .504.032.792.096.288.064.552.184.792.36s.44.412.6.708c.16.296.24.684.24 1.164 0 .48-.096.92-.288 1.32-.192.4-.444.744-.756 1.032a3.382 3.382 0 01-1.092.672c-.416.16-.856.24-1.32.24-.608 0-1.104-.096-1.488-.288a2.545 2.545 0 01-.912-.732 2.534 2.534 0 01-.456-.948 4.058 4.058 0 01-.12-.936zm2.784-7.752a2.97 2.97 0 01-.768-.096 1.1 1.1 0 01-.612-.444c-.168-.232-.3-.572-.396-1.02-.096-.448-.144-1.048-.144-1.8 0-.368.024-.728.072-1.08.048-.352.14-.664.276-.936a1.67 1.67 0 01.588-.66c.256-.168.584-.252.984-.252.432 0 .768.08 1.008.24.24.16.424.384.552.672.128.288.208.628.24 1.02s.048.82.048 1.284c0 .656-.044 1.188-.132 1.596-.088.408-.212.72-.372.936-.16.216-.352.36-.576.432-.224.072-.48.108-.768.108zm.72 2.304h-2.64c-.544 0-.976-.096-1.296-.288-.32-.192-.48-.488-.48-.888 0-.176.04-.372.12-.588.08-.216.352-.476.816-.78.32.128.728.256 1.224.384a6.844 6.844 0 001.704.192c.8 0 1.472-.1 2.016-.3.544-.2.988-.46 1.332-.78.344-.32.592-.676.744-1.068.152-.392.228-.788.228-1.188 0-.656-.112-1.156-.336-1.5a6.321 6.321 0 00-.624-.828l.359-.246c.135-.09.24-.157.313-.198a.71.71 0 01.336-.108c.176 0 .28.056.312.168.032.112.064.28.096.504l.06.252a.7.7 0 00.144.288.877.877 0 00.312.228c.136.064.316.096.54.096.32 0 .576-.092.768-.276.192-.184.288-.436.288-.756 0-.368-.116-.668-.348-.9-.232-.232-.58-.348-1.044-.348-.528 0-.952.092-1.272.276-.32.184-.68.46-1.08.828a6.01 6.01 0 00-1.332-.768c-.52-.224-1.14-.336-1.86-.336a6.24 6.24 0 00-1.956.288c-.584.192-1.076.452-1.476.78-.4.328-.708.712-.924 1.152-.216.44-.324.908-.324 1.404 0 .352.052.66.156.924.104.264.232.496.384.696.152.2.316.376.492.528.176.152.336.284.48.396-.496.272-.892.56-1.188.864a3.748 3.748 0 00-.66.876c-.144.28-.236.524-.276.732l-.038.219a1.539 1.539 0 00-.022.213c0 .496.12.912.36 1.248.24.336.536.6.888.792.352.192.732.328 1.14.408.408.08.772.12 1.092.12v.048c-.368.096-.74.232-1.116.408a5.18 5.18 0 00-1.032.636c-.312.248-.564.54-.756.876a2.28 2.28 0 00-.288 1.152c0 .224.048.5.144.828.096.328.304.648.624.96.32.312.78.58 1.38.804.6.224 1.404.336 2.412.336.896 0 1.692-.144 2.388-.432a5.873 5.873 0 001.788-1.128 4.723 4.723 0 001.128-1.584c.256-.592.384-1.2.384-1.824 0-.736-.128-1.348-.384-1.836a3.183 3.183 0 00-1.008-1.164 4.022 4.022 0 00-1.452-.612 8.172 8.172 0 00-1.74-.18zm13.344-4.248v3.168c0 .464-.048.86-.144 1.188a2.286 2.286 0 01-.384.792c-.16.2-.34.348-.54.444a1.4 1.4 0 01-.612.144c-.368 0-.656-.084-.864-.252a1.59 1.59 0 01-.468-.612 2.431 2.431 0 01-.192-.744 7.314 7.314 0 01-.036-.672c0-.48.076-.872.228-1.176.152-.304.348-.56.588-.768.24-.208.512-.38.816-.516.304-.136.608-.276.912-.42.224-.112.38-.212.468-.3a.713.713 0 00.18-.276h.048zm4.848 5.568l-.216-.216c-.128.144-.26.256-.396.336-.136.08-.308.12-.516.12-.352 0-.572-.116-.66-.348a2.259 2.259 0 01-.132-.804v-5.952c0-.672-.116-1.228-.348-1.668a2.753 2.753 0 00-.936-1.044 3.714 3.714 0 00-1.392-.528 9.732 9.732 0 00-1.716-.144c-.528 0-1.036.056-1.524.168a4.88 4.88 0 00-1.308.492 2.778 2.778 0 00-.924.816c-.232.328-.348.7-.348 1.116 0 .272.044.488.132.648.088.16.196.284.324.372.128.088.276.144.444.168.168.024.332.036.492.036l.261-.005.159-.007c.168-.008.328-.044.48-.108.152-.064.284-.164.396-.3.112-.136.168-.324.168-.564l-.006-.102-.132-1.119a1.108 1.108 0 01-.006-.099c0-.448.136-.756.408-.924a1.79 1.79 0 01.96-.252c.576 0 .968.176 1.176.528.208.352.312.744.312 1.176v1.464c0 .304-.044.552-.132.744-.088.192-.244.364-.468.516-.224.152-.54.296-.948.432l-.593.19c-.294.092-.628.192-1.003.302-.4.128-.788.26-1.164.396a4.015 4.015 0 00-1.008.528c-.296.216-.536.48-.72.792-.184.312-.276.7-.276 1.164 0 .448.104.828.312 1.14.208.312.48.556.816.732.336.176.704.304 1.104.384.4.08.792.12 1.176.12.848 0 1.496-.112 1.944-.336.448-.224.8-.656 1.056-1.296h.048c.096.512.34.912.732 1.2.392.288.996.432 1.812.432.368 0 .764-.032 1.188-.096.424-.064.748-.264.972-.6zm5.544-4.752c0-.528.028-1.096.084-1.704a7.182 7.182 0 01.348-1.68 3.13 3.13 0 01.792-1.272c.352-.336.824-.504 1.416-.504.416 0 .76.088 1.032.264.272.176.496.464.672.864.176.4.3.932.372 1.596.072.664.108 1.476.108 2.436 0 .784-.02 1.492-.06 2.124-.04.632-.128 1.172-.264 1.62-.136.448-.336.792-.6 1.032-.264.24-.62.36-1.068.36-.672 0-1.196-.172-1.572-.516a3.247 3.247 0 01-.852-1.296 5.972 5.972 0 01-.348-1.68c-.04-.6-.06-1.148-.06-1.644zM92.056 9.032v16.632h-1.584V26h4.464v-1.776h.048c.256.672.612 1.188 1.068 1.548.456.36 1.044.54 1.764.54.784 0 1.496-.152 2.136-.456a5.197 5.197 0 001.644-1.212 5.605 5.605 0 001.068-1.74 5.627 5.627 0 00.384-2.064c0-.56-.1-1.16-.3-1.8a5.575 5.575 0 00-.936-1.776 5.182 5.182 0 00-1.62-1.356c-.656-.36-1.448-.54-2.376-.54-.72 0-1.304.168-1.752.504-.448.336-.792.84-1.032 1.512h-.048V8.696h-4.512v.336h1.584zM110.632 26c-.624 0-1.112-.148-1.464-.444a2.61 2.61 0 01-.78-1.164 6.22 6.22 0 01-.312-1.656 29.633 29.633 0 010-3.78 6.19 6.19 0 01.312-1.644 2.61 2.61 0 01.78-1.164c.352-.296.84-.444 1.464-.444s1.112.148 1.464.444c.352.296.612.684.78 1.164a6.19 6.19 0 01.312 1.644 29.633 29.633 0 010 3.78 6.22 6.22 0 01-.312 1.656 2.61 2.61 0 01-.78 1.164c-.352.296-.84.444-1.464.444zm0-10.632c-.832 0-1.604.148-2.316.444a6.116 6.116 0 00-1.86 1.188 5.355 5.355 0 00-1.236 1.74 5.1 5.1 0 00-.444 2.1c0 .752.148 1.46.444 2.124a5.355 5.355 0 001.236 1.74 5.938 5.938 0 001.86 1.176 6.118 6.118 0 002.316.432c.832 0 1.604-.144 2.316-.432a5.938 5.938 0 001.86-1.176 5.355 5.355 0 001.236-1.74 5.157 5.157 0 00.444-2.124 5.1 5.1 0 00-.444-2.1 5.355 5.355 0 00-1.236-1.74 6.116 6.116 0 00-1.86-1.188 5.973 5.973 0 00-2.316-.444zm33.696-6.672v16.968h1.584V26h-4.464v-1.776h-.048c-.256.672-.612 1.188-1.068 1.548-.456.36-1.044.54-1.764.54-.784 0-1.496-.152-2.136-.456a5.197 5.197 0 01-1.644-1.212 5.605 5.605 0 01-1.068-1.74 5.627 5.627 0 01-.384-2.064c0-.56.1-1.16.3-1.8.2-.64.512-1.232.936-1.776a5.182 5.182 0 011.62-1.356c.656-.36 1.448-.54 2.376-.54.72 0 1.304.168 1.752.504.448.336.792.84 1.032 1.512h.048V9.032h-1.632v-.336h4.56zm-17.496 6.792c1.056 0 1.876.304 2.46.912.535.557.825 1.303.87 2.237l.006.259v6.768h1.608V26h-6.024v-.336h1.488V18.08c0-.672-.136-1.164-.408-1.476-.272-.312-.64-.468-1.104-.468-.384 0-.752.092-1.104.276-.352.184-.66.46-.924.828-.264.368-.476.824-.636 1.368a6.464 6.464 0 00-.235 1.61l-.005.31v5.136h1.512V26h-6.024v-.336h1.584V16.04h-1.584v-.336h4.464v2.4h.048c.032-.072.076-.163.132-.273l.06-.116.144-.271c.16-.296.392-.588.696-.876.304-.288.696-.54 1.176-.756.48-.216 1.08-.324 1.8-.324zm11.928.216c-.4 0-.74.088-1.02.264-.28.176-.508.464-.684.864-.176.4-.3.932-.372 1.596a23.133 23.133 0 00-.108 2.436c0 .784.02 1.492.06 2.124.04.632.128 1.172.264 1.62.136.448.336.792.6 1.032.264.24.62.36 1.068.36.672 0 1.196-.172 1.572-.516.376-.344.66-.776.852-1.296.192-.52.308-1.08.348-1.68.04-.6.06-1.148.06-1.644 0-.528-.028-1.096-.084-1.704a7.182 7.182 0 00-.348-1.68 3.13 3.13 0 00-.792-1.272c-.352-.336-.824-.504-1.416-.504z"/></g></svg>
